<svg width="138" height="61" viewBox="0 0 138 61" fill="none" xmlns="http://www.w3.org/2000/svg">
<path d="M8.59643 21.1814L12.9864 60.0514L6.50159 60.7854L1.3772 15.4343L17.585 13.5825L18.3194 20.0553L8.59643 21.1814ZM20.5144 39.532L17.2678 39.899L10.057 34.1519L19.78 33.0592L20.5144 39.532Z" fill="#896BFF"/>
<path d="M24.8543 48.8747L21.9082 22.9586C21.1737 16.4747 24.0503 12.8602 30.5379 12.115C37.0254 11.3699 40.642 14.2448 41.3876 20.7398L44.317 46.656C45.0403 53.1287 42.1637 56.7433 35.6873 57.4995C29.2109 58.2558 25.5999 55.3809 24.8543 48.8747ZM28.4096 22.2246L31.3307 48.1407C31.5811 50.2983 32.7857 51.2575 34.9445 51.0184C37.1033 50.7793 38.0603 49.5754 37.8155 47.4067L34.8861 21.4989C34.6413 19.3413 33.4395 18.3821 31.2806 18.6212C29.1191 18.8631 28.1676 20.0642 28.4096 22.2246Z" fill="#896BFF"/>
<path d="M47.5386 46.3138L44.6175 20.3976C43.883 13.9193 46.7568 10.3048 53.2388 9.55408C59.7208 8.80337 63.3374 11.6783 64.0885 18.1789L67.0096 44.095C67.744 50.5733 64.8703 54.1879 58.3883 54.9386C51.9063 55.6893 48.2897 52.8143 47.5386 46.3138ZM51.0939 19.6219L54.0233 45.538C54.2682 47.6956 55.47 48.6549 57.6288 48.4157C59.7904 48.1738 60.7502 46.9644 60.5081 44.8123L57.5787 18.8962C57.3339 16.7386 56.1321 15.7794 53.9733 16.0185C51.8145 16.2576 50.863 17.4727 51.119 19.6636L51.0939 19.6219Z" fill="#896BFF"/>
<path d="M87.9911 14.6097L88.7256 21.0908C89.1093 23.3667 88.7524 25.7056 87.7074 27.7638C89.0483 29.204 89.8829 31.2976 90.2112 34.0447L90.9456 40.5258C91.6745 46.9986 88.7979 50.6131 82.3159 51.3694L72.5929 52.4704L67.4685 7.11927L77.1915 6.01822C83.6568 5.27307 87.2567 8.13689 87.9911 14.6097ZM82.2408 21.8165L81.5064 15.3354C81.2671 13.1833 80.0653 12.2269 77.9009 12.466L74.6627 12.833L76.1566 25.7869L79.3948 25.4199C81.537 25.1808 82.4856 23.9796 82.2408 21.8165ZM76.1566 25.7869L78.3516 45.2219L81.5898 44.8632C83.7542 44.613 84.714 43.4091 84.4692 41.2515L83.7347 34.7787C83.4955 32.6156 82.2937 31.6563 80.1293 31.901L78.602 32.0762L76.1566 25.7869Z" fill="#896BFF"/>
<path d="M99.1746 26.4703L101.737 49.1417L95.252 49.8757L90.7703 10.1299L109.582 2.36426L114.706 47.682L108.222 48.416L106.394 32.2174L99.1746 26.4703ZM99.1746 26.4703L105.659 25.7363L104.074 11.6814L97.8059 14.2922L99.1746 26.4703Z" fill="#896BFF"/>
<path d="M121.5 20.6734L124.43 46.5811L117.945 47.3152L112.82 1.96404L122.543 0.871334C129.031 0.137308 132.647 3.00946 133.393 9.4878L134.127 15.9689C134.639 20.5065 133.382 23.6345 130.355 25.3528L138 45.0547L131.323 45.8137L121.5 20.6734ZM121.5 20.6734L124.738 20.3063C126.903 20.0617 127.862 18.8605 127.618 16.7029L126.883 10.2218C126.644 8.05868 125.442 7.09944 123.278 7.34412L120.04 7.71113L121.5 20.6734Z" fill="#896BFF"/>
<path d="M7.21088 20.4224L11.6008 59.2925L5.11606 60.0265L0 14.6754L16.2078 12.8486L16.9339 19.3298L7.21088 20.4224ZM19.1289 38.7731L15.8906 39.1401L8.67141 33.3847L18.4028 32.292L19.1289 38.7731Z" fill="#76DEFF"/>
<path d="M23.4686 48.1156L20.5392 22.1995C19.8103 15.7212 22.6869 12.1066 29.1689 11.3559C35.6509 10.6052 39.2675 13.4774 40.0186 19.9724L42.9397 45.8885C43.6741 52.3668 40.8003 55.9814 34.3183 56.7321C27.8363 57.4828 24.2198 54.6106 23.4686 48.1156ZM27.024 21.4238L29.9534 47.3399C30.1982 49.503 31.4001 50.4623 33.5589 50.2176C35.7177 49.9729 36.6747 48.7718 36.4299 46.6142L33.5088 20.6981C33.2695 18.5349 32.0677 17.5757 29.9034 17.8204C27.7501 18.104 26.782 19.3134 27.024 21.4655V21.4238Z" fill="#76DEFF"/>
<path d="M46.1614 45.5547L43.232 19.6385C42.4976 13.1658 45.3713 9.55125 51.8533 8.79498C58.3353 8.03871 61.9519 10.9109 62.703 17.4114L65.6324 43.3276C66.3558 49.8115 63.4792 53.426 57.0028 54.1711C50.5263 54.9163 46.9125 52.0441 46.1614 45.5547ZM49.7168 18.9129L52.6379 44.8206C52.8799 46.981 54.09 47.9402 56.2433 47.6984C58.3965 47.4565 59.3647 46.2553 59.1226 44.095L56.1932 18.1788C55.9484 16.0212 54.7466 15.062 52.5878 15.3011C50.429 15.5402 49.472 16.7442 49.7168 18.9129Z" fill="#76DEFF"/>
<path d="M86.6057 13.8497L87.3401 20.3308C87.7244 22.6067 87.3675 24.9458 86.3219 27.0038C87.6628 28.4441 88.4974 30.5377 88.8257 33.2847L89.5601 39.7659C90.2946 46.2498 87.418 49.8643 80.9304 50.6094L71.149 51.6771L66.033 6.32596L75.7893 5.2416C82.2658 4.50202 85.8712 7.3714 86.6057 13.8497ZM80.8553 21.0899L80.1292 14.6171C79.8788 12.4595 78.6743 11.5003 76.5154 11.7394L73.2772 12.1064L74.7378 25.0603L77.9843 24.7016C80.1459 24.4264 81.0974 23.2169 80.8553 21.0899ZM74.7378 25.0603L76.9327 44.4453L80.1793 44.0783C82.3409 43.8364 83.2923 42.6352 83.0503 40.4749L82.3242 33.9937C82.0738 31.8362 80.8692 30.8769 78.7104 31.116L77.1915 31.2912L74.7378 25.0603Z" fill="#76DEFF"/>
<path d="M97.7974 25.7109L100.36 48.3906L93.8832 49.1163L89.3848 9.41215L108.205 1.64648L113.321 46.9476L106.836 47.6816L105.008 31.483L97.7974 25.7109ZM97.7974 25.7109L104.274 24.9768L102.688 10.9219L96.4204 13.5327L97.7974 25.7109Z" fill="#76DEFF"/>
<path d="M120.115 19.914L123.044 45.8301L116.559 46.5558L111.443 1.20467L121.166 0.11197C127.643 -0.622056 131.259 2.25288 132.016 8.73677L132.75 15.2095C133.262 19.7472 132.007 22.8751 128.986 24.5934L136.623 44.3037L129.946 45.0544L120.115 19.914ZM120.115 19.914L123.361 19.547C125.523 19.3051 126.474 18.1039 126.232 15.9436L125.506 9.46245C125.256 7.30486 124.051 6.3484 121.892 6.59308L118.654 6.95175L120.115 19.914Z" fill="#76DEFF"/>
</svg>
